<svg width="185" height="184" viewBox="0 0 185 184" fill="none" xmlns="http://www.w3.org/2000/svg">
<circle cx="6.16667" cy="6.16667" r="6.16667" fill="#E4E8F7"/>
<circle cx="30.8333" cy="6.16667" r="6.16667" fill="#E4E8F7"/>
<circle cx="55.5" cy="6.16667" r="6.16667" fill="#E4E8F7"/>
<circle cx="80.1667" cy="6.16667" r="6.16667" fill="#E4E8F7"/>
<circle cx="104.833" cy="6.16667" r="6.16667" fill="#E4E8F7"/>
<circle cx="129.5" cy="6.16667" r="6.16667" fill="#E4E8F7"/>
<circle cx="154.167" cy="6.16667" r="6.16667" fill="#E4E8F7"/>
<circle cx="178.833" cy="6.16667" r="6.16667" fill="#E4E8F7"/>
<circle cx="6.16667" cy="30.8333" r="6.16667" fill="#E4E8F7"/>
<circle cx="30.8333" cy="30.8333" r="6.16667" fill="#E4E8F7"/>
<circle cx="55.5" cy="30.8333" r="6.16667" fill="#E4E8F7"/>
<circle cx="80.1667" cy="30.8333" r="6.16667" fill="#E4E8F7"/>
<circle cx="104.833" cy="30.8333" r="6.16667" fill="#E4E8F7"/>
<circle cx="129.5" cy="30.8333" r="6.16667" fill="#E4E8F7"/>
<circle cx="154.167" cy="30.8333" r="6.16667" fill="#E4E8F7"/>
<circle cx="178.833" cy="30.8333" r="6.16667" fill="#E4E8F7"/>
<circle cx="6.16667" cy="55.5" r="6.16667" fill="#E4E8F7"/>
<circle cx="30.8333" cy="55.5" r="6.16667" fill="#E4E8F7"/>
<circle cx="55.5" cy="55.5" r="6.16667" fill="#E4E8F7"/>
<circle cx="80.1667" cy="55.5" r="6.16667" fill="#E4E8F7"/>
<circle cx="104.833" cy="55.5" r="6.16667" fill="#E4E8F7"/>
<circle cx="129.5" cy="55.5" r="6.16667" fill="#E4E8F7"/>
<circle cx="154.167" cy="55.5" r="6.16667" fill="#E4E8F7"/>
<circle cx="178.833" cy="55.5" r="6.16667" fill="#E4E8F7"/>
<circle cx="6.16667" cy="80.1667" r="6.16667" fill="#E4E8F7"/>
<circle cx="30.8333" cy="80.1667" r="6.16667" fill="#E4E8F7"/>
<circle cx="55.5" cy="80.1667" r="6.16667" fill="#E4E8F7"/>
<circle cx="80.1667" cy="80.1667" r="6.16667" fill="#E4E8F7"/>
<circle cx="104.833" cy="80.1667" r="6.16667" fill="#E4E8F7"/>
<circle cx="129.5" cy="80.1667" r="6.16667" fill="#E4E8F7"/>
<circle cx="154.167" cy="80.1667" r="6.16667" fill="#E4E8F7"/>
<circle cx="178.833" cy="80.1667" r="6.16667" fill="#E4E8F7"/>
<circle cx="6.16667" cy="104.833" r="6.16667" fill="#E4E8F7"/>
<circle cx="30.8333" cy="104.833" r="6.16667" fill="#E4E8F7"/>
<circle cx="55.5" cy="104.833" r="6.16667" fill="#E4E8F7"/>
<circle cx="80.1667" cy="104.833" r="6.16667" fill="#E4E8F7"/>
<circle cx="104.833" cy="104.833" r="6.16667" fill="#E4E8F7"/>
<circle cx="129.5" cy="104.833" r="6.16667" fill="#E4E8F7"/>
<circle cx="154.167" cy="104.833" r="6.16667" fill="#E4E8F7"/>
<circle cx="178.833" cy="104.833" r="6.16667" fill="#E4E8F7"/>
<circle cx="6.16667" cy="129.5" r="6.16667" fill="#E4E8F7"/>
<circle cx="30.8333" cy="129.5" r="6.16667" fill="#E4E8F7"/>
<circle cx="55.5" cy="129.5" r="6.16667" fill="#E4E8F7"/>
<circle cx="80.1667" cy="129.5" r="6.16667" fill="#E4E8F7"/>
<circle cx="104.833" cy="129.5" r="6.16667" fill="#E4E8F7"/>
<circle cx="129.5" cy="129.5" r="6.16667" fill="#E4E8F7"/>
<circle cx="154.167" cy="129.5" r="6.16667" fill="#E4E8F7"/>
<circle cx="178.833" cy="129.5" r="6.16667" fill="#E4E8F7"/>
<circle cx="6.16667" cy="154.167" r="6.16667" fill="#E4E8F7"/>
<circle cx="30.8333" cy="154.167" r="6.16667" fill="#E4E8F7"/>
<circle cx="55.5" cy="154.167" r="6.16667" fill="#E4E8F7"/>
<circle cx="80.1667" cy="154.167" r="6.16667" fill="#E4E8F7"/>
<circle cx="104.833" cy="154.167" r="6.16667" fill="#E4E8F7"/>
<circle cx="129.5" cy="154.167" r="6.16667" fill="#E4E8F7"/>
<circle cx="154.167" cy="154.167" r="6.16667" fill="#E4E8F7"/>
<circle cx="178.833" cy="154.167" r="6.16667" fill="#E4E8F7"/>
<circle cx="6.16667" cy="178.833" r="6.16667" fill="#E4E8F7"/>
<circle cx="30.8333" cy="178.833" r="6.16667" fill="#E4E8F7"/>
<circle cx="55.5" cy="178.833" r="6.16667" fill="#E4E8F7"/>
<circle cx="80.1667" cy="178.833" r="6.16667" fill="#E4E8F7"/>
<circle cx="104.833" cy="178.833" r="6.16667" fill="#E4E8F7"/>
<circle cx="129.5" cy="178.833" r="6.16667" fill="#E4E8F7"/>
<circle cx="154.167" cy="178.833" r="6.16667" fill="#E4E8F7"/>
<circle cx="178.833" cy="178.833" r="6.16667" fill="#E4E8F7"/>
</svg>
